<svg id="c32ac658-24df-426b-b863-cdc437f0bdd8" data-name="圖層 1" xmlns="http://www.w3.org/2000/svg" viewBox="0 0 45 42"><defs><style>.fab22a16-4a84-40dc-8a89-9bf6bd965e66{fill:#fff;}</style></defs><title>logo_link</title><path class="fab22a16-4a84-40dc-8a89-9bf6bd965e66" d="M7.57,34a7,7,0,0,1,0-9.86l6.36-6.36-3-3L4.54,21.14A11.25,11.25,0,0,0,20.45,37l6.36-6.36-3-3L17.43,34A7,7,0,0,1,7.57,34Zm8.11-4.93L28.41,16.36l-3.18-3.18L12.5,25.91ZM20.45,5.23l-6.36,6.36,3,3,6.36-6.36a7,7,0,0,1,9.86,9.86L27,24.48l3,3,6.36-6.36A11.25,11.25,0,1,0,20.45,5.23Z"/></svg>